<?xml version="1.0" encoding="UTF-8"?>
<svg width="252px" height="103px" viewBox="0 0 252 103" version="1.1" xmlns="http://www.w3.org/2000/svg" xmlns:xlink="http://www.w3.org/1999/xlink">
    <title>assets/@logo copy 31</title>
    <g id="Guide" stroke="none" stroke-width="1" fill="none" fill-rule="evenodd">
        <g id="01---Ãndice" transform="translate(-793.000000, -800.000000)" fill="#FFFFFF">
            <g id="assets/@logo_2" transform="translate(793.000000, 800.000000)">
                <path d="M148.24232,82.5449964 C149.450186,82.5449964 150.46669,82.6700281 151.29117,82.9187649 C152.11565,83.168165 152.782264,83.551883 153.29035,84.0692555 C153.798105,84.5872913 154.162588,85.2489312 154.383466,86.0541751 C154.603681,86.859419 154.71412,87.8089303 154.71412,88.9017139 L154.71412,96.7830221 C154.71412,97.9139454 154.594063,98.8680998 154.354612,99.6448219 C154.114498,100.421544 153.731444,101.049356 153.204122,101.529252 C152.676468,102.008153 151.985975,102.3534 151.132973,102.56466 C150.27964,102.775589 149.249207,102.880722 148.041009,102.880722 C147.235434,102.880722 146.482922,102.875747 145.783142,102.866461 C145.083031,102.856843 144.282099,102.832633 143.381008,102.794493 L143.726587,101.327609 C144.56997,101.36608 145.308221,101.389628 145.941339,101.399577 C146.574125,101.408863 147.273905,101.413838 148.041009,101.413838 C148.980571,101.413838 149.771222,101.34187 150.413627,101.198266 C151.056362,101.05433 151.574067,100.80493 151.967071,100.450397 C152.359743,100.095533 152.643303,99.6206115 152.815761,99.026628 C152.988218,98.4319813 153.074779,97.6844443 153.074779,96.7830221 L153.074779,95.3158067 C152.652921,96.0063 152.019803,96.5051002 151.176419,96.811544 C150.332041,97.118651 149.296633,97.2722045 148.069863,97.2722045 C145.902868,97.2722045 144.316259,96.7830221 143.309372,95.8049891 C142.302486,94.826956 141.799374,93.1687107 141.799374,90.8289266 L141.799374,88.9879427 C141.799374,87.7993124 141.923742,86.7974006 142.173142,85.9822073 C142.422211,85.1673455 142.81024,84.5060373 143.338226,83.9972876 C143.865548,83.4895329 144.531499,83.1200759 145.337074,82.8902431 C146.14265,82.6600786 147.110734,82.5449964 148.24232,82.5449964 Z M193.659171,76.4182444 L193.659171,97.789378 L191.990977,97.789378 L191.990977,76.4182444 L193.659171,76.4182444 Z M166.909453,78.9495226 L166.909453,83.0049273 L172.978631,83.0049273 L172.662237,84.4432893 L166.909453,84.4432893 L166.909453,92.7560729 C166.909453,93.4654703 166.95721,94.0504992 167.053388,94.5108281 C167.148903,94.971157 167.326667,95.3353077 167.585354,95.6036118 C167.844371,95.8722475 168.199236,96.0592976 168.649947,96.1644303 C169.100326,96.2698947 169.689998,96.3229586 170.418963,96.3229586 L172.633715,96.3229586 L172.317322,97.7898424 L170.418963,97.7898424 C169.44093,97.7898424 168.621094,97.7178745 167.959785,97.5739388 C167.297814,97.4303348 166.765849,97.1709852 166.363227,96.7972167 C165.960273,96.4234482 165.673065,95.9156935 165.499944,95.2729576 C165.327487,94.6305534 165.241258,93.8014308 165.241258,92.7849264 L165.241258,79.2659158 L166.909453,78.9495226 Z M131.847282,76.4182775 L131.847282,96.1500699 C131.847282,96.802092 131.7322,97.2388738 131.502035,97.4590887 C131.271871,97.6796354 130.792306,97.7897429 130.063673,97.7897429 L125.519086,97.7897429 C124.368596,97.7897429 123.385588,97.6746606 122.571058,97.4444962 C121.755533,97.2143317 121.08925,96.8359202 120.571877,96.3082665 C120.054173,95.7812762 119.67543,95.0814966 119.435648,94.2085963 C119.195866,93.3360277 119.07614,92.2667911 119.07614,91.0015499 L119.07614,89.1317125 C119.07614,86.7348848 119.598156,85.0378366 120.643845,84.0405678 C121.68854,83.0439624 123.246627,82.5448306 125.317775,82.5448306 C126.544877,82.5448306 127.551432,82.7033588 128.337772,83.019752 C129.124112,83.3361452 129.737331,83.7722638 130.179087,84.3281076 L130.179087,76.4182775 L131.847282,76.4182775 Z M181.262329,82.9475852 C182.413151,82.9475852 183.386209,83.0387887 184.182167,83.220864 C184.977461,83.4036027 185.62484,83.6911424 186.12364,84.0838149 C186.622109,84.4771507 186.986923,84.985237 187.216756,85.6084056 C187.44692,86.2315742 187.561671,86.9940354 187.561671,87.8947942 L187.561671,96.1502026 C187.561671,96.8022246 187.441945,97.2386748 187.202163,97.4588898 C186.962381,97.6794364 186.487791,97.7895439 185.778725,97.7895439 L181.061018,97.7895439 C179.085716,97.7895439 177.666921,97.4442972 176.804302,96.7541355 C175.941351,96.0636422 175.509876,94.9423367 175.509876,93.3888925 L175.509876,92.9862706 C175.509876,91.3754511 175.945994,90.2060565 176.818563,89.4770919 C177.691131,88.7484589 179.105283,88.3839766 181.061018,88.3839766 C182.384629,88.3839766 183.43861,88.5090083 184.225281,88.7577451 C185.011289,89.0071452 185.586369,89.3523918 185.951183,89.7934851 L185.951183,88.0675834 C185.951183,87.37709 185.883527,86.7973675 185.749872,86.3274208 C185.615222,85.8578057 185.375772,85.4837056 185.030857,85.205452 C184.68561,84.9278617 184.206046,84.7265508 183.592495,84.6015191 C182.978612,84.4771507 182.20189,84.414469 181.262329,84.414469 C180.552931,84.414469 179.805063,84.4194437 179.019054,84.4287299 C178.232714,84.439011 177.523317,84.4625581 176.890862,84.5006977 L177.206924,83.0049605 C177.743532,82.9863881 178.376318,82.9721272 179.105283,82.9618461 C179.833916,82.9525599 180.552931,82.9475852 181.262329,82.9475852 Z M137.944451,83.0051263 L137.944451,97.7897097 L136.276256,97.7897097 L136.276256,83.0051263 L137.944451,83.0051263 Z M160.811654,83.0051263 L160.811654,97.7897097 L159.143459,97.7897097 L159.143459,83.0051263 L160.811654,83.0051263 Z M48.8941915,6.63298117e-05 C67.9473305,6.63298117e-05 85.2721825,11.0988727 93.2675395,28.3436809 L93.5069596,28.868127 L91.3505774,28.868127 C83.6122099,12.4843318 67.074198,1.95580083 48.8941915,1.95580083 C23.012299,1.95580083 1.95656362,23.0118679 1.95656362,48.8934288 C1.95656362,74.7753213 23.012299,95.8313883 48.8941915,95.8313883 C64.9372227,95.8313883 79.6729215,87.722683 88.2890793,74.4187775 L88.5740115,73.9733938 C89.5683219,72.3550526 90.3230044,72.0112625 91.8943779,71.9596473 L92.0951295,71.954646 L95.0829559,71.954646 C99.9807492,71.954646 102.125313,70.403081 102.204496,65.7284838 L102.206778,65.4553194 L102.206778,64.415268 C100.178744,66.0270824 97.3189339,66.5471081 94.459124,66.5471081 C85.6397603,66.5471081 81.8262502,62.451351 81.7220206,54.0111441 L81.7198204,53.6519294 L81.7198204,52.2477273 C81.7198204,43.0965349 86.0876385,39.0925358 95.6029816,39.0925358 C104.784932,39.0925358 109.310947,42.8370364 109.431595,51.4241466 L109.434074,51.7797705 L109.434074,65.1949749 C109.434074,73.9663306 104.829455,77.4753106 95.8698303,77.5685461 L95.4991755,77.5704595 L88.5037019,77.5704595 C79.3813629,90.1847315 64.7496697,97.7871228 48.8941915,97.7871228 C21.9341079,97.7871228 0.000165824528,75.8535124 0.000165824528,48.8934288 C0.000165824528,21.9333452 21.9341079,6.63298117e-05 48.8941915,6.63298117e-05 Z M181.406596,89.7934851 L181.032164,89.7934851 C179.613038,89.7934851 178.606151,90.0282926 178.012168,90.4979077 C177.417521,90.968186 177.120695,91.7973087 177.120695,92.9862706 L177.120695,93.360039 C177.120695,93.8780749 177.182713,94.3191681 177.307414,94.6833188 C177.432114,95.0478011 177.643042,95.3549081 177.940532,95.6036449 C178.237357,95.853045 178.640311,96.0347887 179.148729,96.1502026 C179.656484,96.2652848 180.293913,96.3229917 181.061018,96.3229917 L185.951183,96.3229917 L185.951183,92.8708567 C185.951183,92.2576376 185.850362,91.7541943 185.649051,91.3611902 C185.44774,90.968186 185.155225,90.6564359 184.771839,90.4262715 C184.387789,90.196107 183.913531,90.033599 183.347738,89.9374208 C182.782276,89.8415742 182.135229,89.7934851 181.406596,89.7934851 Z M125.404004,84.0117144 C124.579525,84.0117144 123.874439,84.088657 123.290073,84.2418788 C122.704713,84.395764 122.225811,84.6640681 121.852043,85.0474544 C121.477611,85.4311723 121.204664,85.953188 121.032206,86.6151595 C120.859086,87.2767994 120.773188,88.1155398 120.773188,89.1317125 L120.773188,91.0015499 C120.773188,92.0565256 120.849468,92.9287626 121.003353,93.6189243 C121.156243,94.3094176 121.420567,94.8556436 121.794336,95.2585972 C122.168104,95.6612192 122.661598,95.9394728 123.275481,96.0926946 C123.889031,96.2465798 124.656467,96.3228591 125.576793,96.3228591 L130.179087,96.3228591 L130.179087,88.5277796 C130.179087,87.5497465 130.05903,86.7637383 129.81958,86.1690915 C129.579134,85.575108 129.244169,85.1194222 128.812693,84.803029 C128.381218,84.4866358 127.8728,84.275707 127.288103,84.169911 C126.702742,84.0647782 126.075262,84.0117144 125.404004,84.0117144 Z M148.213467,84.0115486 C147.312045,84.0115486 146.564176,84.0888228 145.969861,84.2420446 C145.375546,84.3959298 144.891006,84.6592592 144.517238,85.0330277 C144.143801,85.4067961 143.879808,85.9201889 143.726587,86.5718793 C143.572701,87.2239013 143.496422,88.0487125 143.496422,89.0456496 L143.496422,90.7423662 C143.496422,91.7781062 143.587294,92.6264645 143.769701,93.2881044 C143.951445,93.9497442 144.234341,94.4674484 144.618059,94.8415486 C145.001114,95.215317 145.490296,95.4696919 146.085275,95.6036781 C146.679258,95.737996 147.388655,95.8049891 148.213467,95.8049891 C148.865157,95.8049891 149.483683,95.7525885 150.068712,95.6467925 C150.653409,95.5416597 151.171113,95.335374 151.621824,95.028267 C152.072203,94.7218232 152.4274,94.2906795 152.686418,93.7341723 C152.945104,93.1779969 153.074779,92.4496955 153.074779,91.5479418 L153.074779,88.9302357 C153.074779,87.9525343 152.988218,87.1472904 152.815761,86.5141723 C152.643303,85.8813859 152.36505,85.3782743 151.981332,85.0045058 C151.597945,84.6304057 151.099477,84.3713878 150.485926,84.2277837 C149.871712,84.083848 149.114557,84.0115486 148.213467,84.0115486 Z M137.110685,77.568735 C137.551447,77.568735 137.868172,77.674531 138.059865,77.8851282 C138.251226,78.0963886 138.347405,78.4127818 138.347405,78.8346394 C138.347405,79.2946367 138.24194,79.6209793 138.031011,79.8123408 C137.819751,80.0043656 137.513307,80.0998806 137.110685,80.0998806 C136.708063,80.0998806 136.400956,80.0043656 136.190359,79.8123408 C135.979099,79.6209793 135.873634,79.2946367 135.873634,78.8346394 C135.873634,78.4127818 135.969813,78.0963886 136.161506,77.8851282 C136.352867,77.674531 136.66926,77.568735 137.110685,77.568735 Z M159.977888,77.568735 C160.41865,77.568735 160.735043,77.674531 160.927068,77.8851282 C161.118429,78.0963886 161.214939,78.4127818 161.214939,78.8346394 C161.214939,79.2946367 161.108811,79.6209793 160.898214,79.8123408 C160.686954,80.0043656 160.38051,80.0998806 159.977888,80.0998806 C159.575266,80.0998806 159.268159,80.0043656 159.057562,79.8123408 C158.846301,79.6209793 158.740837,79.2946367 158.740837,78.8346394 C158.740837,78.4127818 158.837015,78.0963886 159.028708,77.8851282 C159.22007,77.674531 159.536795,77.568735 159.977888,77.568735 Z M129.501097,41.144946 C136.668033,41.144946 139.863804,44.5353943 139.863804,52.1381173 L139.863804,52.1381173 L139.863804,54.4719317 C139.863804,62.1181008 136.706836,65.5277847 129.627787,65.5277847 C125.969366,65.5277847 122.942737,64.292392 121.319647,62.1824407 L121.319647,62.1824407 L121.319647,72.718268 L119.076041,72.718268 L119.076041,52.200799 C119.076041,44.6581045 122.388883,41.144946 129.501097,41.144946 Z M35.7545875,28.1212533 L35.7545875,41.2764448 C37.8343588,39.6646304 40.9021125,39.0925358 43.7098535,39.0925358 C52.4265258,39.0925358 56.49145,43.3398682 56.6026831,52.0336143 L56.6050322,52.4036024 L56.6050322,54.8475243 C56.6050322,64.3631991 52.2375457,68.2109915 42.3580519,68.2109915 C32.9647004,68.2109915 28.5877321,64.3597433 28.4770461,55.1570448 L28.4748907,54.795787 L28.4748907,29.2654425 L35.7545875,28.1212533 Z M69.0325857,32.0211146 L69.0325857,39.9763805 L79.3279674,39.9763805 L78.1320409,45.800138 L69.0325857,45.800138 L69.0325857,56.4076015 C69.0325857,60.7750879 70.3323183,61.7634021 74.3363174,61.7634021 L74.3363174,61.7634021 L78.8600106,61.7634021 L77.6640841,67.534759 L73.8162917,67.534759 C65.0285866,67.534759 61.8049577,65.0911688 61.8049577,56.8755583 L61.8049577,56.8755583 L61.8049577,33.1129033 L69.0325857,32.0211146 Z M205.083254,41.5236892 L205.083254,56.048923 C205.083254,61.6003966 206.877807,63.4738821 212.193478,63.4738821 C217.670994,63.4738821 219.429066,61.6697113 219.429066,56.048923 L219.429066,56.048923 L219.429066,41.5236892 L221.672672,41.5236892 L221.672672,56.048923 C221.672672,62.8709441 218.925954,65.6538114 212.193478,65.6538114 C205.417888,65.6538114 202.777298,62.960821 202.777298,56.048923 L202.777298,56.048923 L202.777298,41.5236892 L205.083254,41.5236892 Z M251.444145,32.5038298 L251.444145,65.5277847 L249.200539,65.5277847 L249.200539,32.5038298 L251.444145,32.5038298 Z M234.269366,41.5236892 C241.584218,41.5236892 244.568728,43.9954696 244.568728,50.0563562 L244.568728,50.0563562 L244.568728,58.1930342 C244.568728,63.0596525 241.548732,65.5277847 235.593973,65.5277847 L235.593973,65.5277847 L234.080326,65.5277847 C228.45987,65.5277847 225.610009,63.0596525 225.610009,58.1930342 L225.610009,58.1930342 L225.610009,57.8146226 C225.610009,52.6249781 228.504311,50.1014605 234.458406,50.1014605 C238.191116,50.1014605 240.83237,50.8586153 242.325785,52.3540209 L242.325785,52.3540209 L242.325785,50.0563562 C242.325785,45.3064784 240.293108,43.7036185 234.269366,43.7036185 L234.269366,43.7036185 L227.685801,43.7036185 L228.188913,41.5236892 Z M152.082418,41.5236892 C159.353161,41.5236892 162.318766,43.9954696 162.318766,50.0563562 L162.318766,50.0563562 L162.318766,58.1930342 C162.318766,63.0596525 159.320659,65.5277847 153.407025,65.5277847 L153.407025,65.5277847 L151.892715,65.5277847 C146.230802,65.5277847 143.360048,63.0596525 143.360048,58.1930342 L143.360048,58.1930342 L143.360048,57.8146226 C143.360048,52.6249781 146.254349,50.1014605 152.208445,50.1014605 C155.941155,50.1014605 158.582408,50.8586153 160.074829,52.3540209 L160.074829,52.3540209 L160.074829,50.0563562 C160.074829,45.3064784 158.058403,43.7036185 152.082418,43.7036185 L152.082418,43.7036185 L145.499184,43.7036185 L146.001301,41.5236892 Z M182.886646,41.5236892 L182.384529,43.7036185 L177.123249,43.7036185 C170.895874,43.7036185 168.68875,45.9933236 168.68875,52.4531839 L168.68875,52.4531839 L168.68875,54.4719317 C168.68875,60.7682891 171.053408,63.2214972 177.123249,63.2214972 L177.123249,63.2214972 L182.949991,63.2214972 L182.446879,65.4014265 L177.123249,65.4014265 C169.695636,65.4014265 166.382462,62.0305454 166.382462,54.4719317 L166.382462,54.4719317 L166.382462,52.4531839 C166.382462,44.8942386 169.695636,41.5236892 177.123249,41.5236892 L177.123249,41.5236892 L182.886646,41.5236892 Z M189.125297,35.2896819 L189.125297,41.5236892 L199.160334,41.5236892 L198.657554,43.7036185 L189.125297,43.7036185 L189.125297,57.1841577 C189.125297,61.7546134 190.607436,63.2214972 195.226313,63.2214972 L195.226313,63.2214972 L198.959023,63.2214972 L198.539818,65.4014265 L195.226313,65.4014265 C189.09777,65.4014265 186.819009,63.1402432 186.819009,57.0577994 L186.819009,57.0577994 L186.819009,35.7012583 L189.125297,35.2896819 Z M152.398148,52.218708 L152.019405,52.218708 C147.522244,52.218708 145.603986,53.8922092 145.603986,57.8146226 L145.603986,57.8146226 L145.603986,58.1930342 C145.603986,61.806019 147.635668,63.3478555 152.398148,63.3478555 L152.398148,63.3478555 L153.344011,63.3478555 C158.250759,63.3478555 160.074829,62.0365151 160.074829,58.5087641 L160.074829,58.5087641 L160.074829,57.6255826 C160.074829,53.8358288 157.779486,52.218708 152.398148,52.218708 L152.398148,52.218708 Z M234.64811,52.218708 L234.269366,52.218708 C229.772205,52.218708 227.853615,53.8922092 227.853615,57.8146226 L227.853615,57.8146226 L227.853615,58.1930342 C227.853615,61.806019 229.867057,63.3478555 234.584765,63.3478555 L234.584765,63.3478555 L235.531623,63.3478555 C240.421125,63.3478555 242.325785,61.9910792 242.325785,58.5087641 L242.325785,58.5087641 L242.325785,57.6255826 C242.325785,53.8358288 240.029447,52.218708 234.64811,52.218708 L234.64811,52.218708 Z M129.501097,43.3252069 C123.734715,43.3252069 121.382328,45.8968137 121.382328,52.200799 L121.382328,52.200799 L121.382328,55.4177949 C121.382328,60.6797388 124.156573,63.3478555 129.627787,63.3478555 C135.408099,63.3478555 137.556853,60.9420732 137.556853,54.4719317 L137.556853,54.4719317 L137.556853,52.1381173 C137.556853,45.7959924 135.298654,43.3252069 129.501097,43.3252069 Z M42.6180648,44.8121554 C37.5130089,44.8121554 35.7158758,46.5164694 35.6522131,51.5488296 L35.6504497,51.8318394 L35.6504497,54.795787 C35.6504497,60.567144 37.4184708,62.543109 42.5142586,62.543109 C47.5187245,62.543109 49.3135312,60.6370841 49.3760356,55.1503613 L49.3777359,54.8475243 L49.3777359,52.6636153 C49.3777359,46.7881205 47.6097147,44.8121554 42.6180648,44.8121554 Z M95.6029816,44.8121554 C90.031165,44.8121554 88.9822725,46.7720251 88.9483175,52.1732225 L88.9474483,52.4556713 L88.9474483,53.339516 C88.9474483,59.0073984 90.039237,60.9312946 95.6029816,60.9312946 C100.451414,60.9312946 102.194187,59.4786214 102.257072,54.8038377 L102.258847,54.5357742 L102.258847,52.5080718 C102.258847,46.7881205 101.166726,44.8121554 95.6029816,44.8121554 Z" id="Combined-Shape"></path>
            </g>
        </g>
    </g>
</svg>